<svg xmlns="http://www.w3.org/2000/svg" viewBox="0 0 236.7 92.14"><defs><style>.cls-1{fill:#f2f1ec;}.cls-2{fill:#db6c30;}.cls-3{fill:#fff;}.cls-4{fill:none;}</style></defs><title>ORG_Block_logoAsset 1</title><g id="Layer_2" data-name="Layer 2"><g id="Layer_1-2" data-name="Layer 1"><polyline class="cls-4" points="51.25 0 82.61 92.14 0 92.14 0 0.01 51.25 0"/><polygon class="cls-2" points="236.7 92.14 82.56 92.14 51.31 0.01 236.7 0.01 236.7 92.14"/><path class="cls-1" d="M97,28,90.88,45.59H87.27L81.19,28h3.27l4.62,13.39L93.69,28Z"/><path class="cls-1" d="M101.76,26.23h.39V45.32H99.07V26.5Z"/><path class="cls-1" d="M115.93,45.59a4,4,0,0,1-3.07-1.44,8.07,8.07,0,0,1-1.58,1,4.79,4.79,0,0,1-2.11.43,5.16,5.16,0,0,1-3-.82,4,4,0,0,1-1.55-3.55,3.53,3.53,0,0,1,1-2.81,5.64,5.64,0,0,1,3.77-1c.74,0,1.59,0,2.81.11v-.69a2.43,2.43,0,0,0-.8-2,2.88,2.88,0,0,0-1.88-.56,9.49,9.49,0,0,0-3.67.94l-.72-2.69a12,12,0,0,1,5-1.16,5.93,5.93,0,0,1,3.57,1,4.14,4.14,0,0,1,1.53,3.51V41a1.75,1.75,0,0,0,.58,1.41,3.08,3.08,0,0,0,1.45.63Zm-3.68-5.81a17,17,0,0,0-3.32.16,1.32,1.32,0,0,0-1.19,1.39,1.72,1.72,0,0,0,1.93,1.74,3.06,3.06,0,0,0,1.58-.43,2.2,2.2,0,0,0,1-2Z"/><path class="cls-1" d="M129.52,45.59a4,4,0,0,1-3.07-1.44,7.79,7.79,0,0,1-1.58,1,4.79,4.79,0,0,1-2.11.43,5.11,5.11,0,0,1-3-.82,4,4,0,0,1-1.56-3.55,3.53,3.53,0,0,1,1-2.81,5.66,5.66,0,0,1,3.77-1c.74,0,1.6,0,2.81.11v-.69a2.46,2.46,0,0,0-.79-2,2.93,2.93,0,0,0-1.89-.56,9.4,9.4,0,0,0-3.66.94l-.73-2.69a12,12,0,0,1,5-1.16,5.91,5.91,0,0,1,3.57,1,4.11,4.11,0,0,1,1.53,3.51V41a1.75,1.75,0,0,0,.58,1.41,3.17,3.17,0,0,0,1.45.63Zm-3.68-5.81a17.07,17.07,0,0,0-3.32.16,1.31,1.31,0,0,0-1.18,1.39,1.71,1.71,0,0,0,1.92,1.74,3.06,3.06,0,0,0,1.58-.43,2.19,2.19,0,0,0,1-2Z"/><path class="cls-1" d="M132.77,31.64h2.61l.3,1.06A8,8,0,0,1,140,31.37a5.25,5.25,0,0,1,3.47,1.15,4.67,4.67,0,0,1,1.5,3.72v9.08h-3.08V37.15A2.63,2.63,0,0,0,141,35a3.43,3.43,0,0,0-2.16-.63,5.84,5.84,0,0,0-3,.84V45.32h-3.08Z"/><path class="cls-1" d="M159.78,45.32h-2.33l-.56-1a5.8,5.8,0,0,1-3.68,1.3,5.4,5.4,0,0,1-4.39-2,7.31,7.31,0,0,1-1.43-4.53,7.86,7.86,0,0,1,2.07-5.79,7.24,7.24,0,0,1,5.22-1.89,16.21,16.21,0,0,1,2,.13v-5l2.61-.27h.48Zm-3.09-10.78a9,9,0,0,0-2.18-.29,3.81,3.81,0,0,0-2.85,1,4.42,4.42,0,0,0-1.08,3.19,5,5,0,0,0,.84,2.84,2.93,2.93,0,0,0,2.47,1.29,5.6,5.6,0,0,0,2.8-.84Z"/><path class="cls-1" d="M173.23,41.78v3a9.39,9.39,0,0,1-3.89.82,7.31,7.31,0,0,1-5-1.77,7,7,0,0,1-2.11-5.34,7.45,7.45,0,0,1,1.93-5.29,5.86,5.86,0,0,1,4.23-1.82,6.64,6.64,0,0,1,2,.33,4.81,4.81,0,0,1,2.34,1.72,6.93,6.93,0,0,1,1.12,4.15v2.06h-8.3A3.64,3.64,0,0,0,167.17,42a4.6,4.6,0,0,0,2.5.67,7.53,7.53,0,0,0,3.44-.89Zm-2.13-4.59a3.29,3.29,0,0,0-.89-2.19,2.39,2.39,0,0,0-1.68-.66,2.71,2.71,0,0,0-1.8.67,3.83,3.83,0,0,0-1.15,2.18Z"/><path class="cls-1" d="M184.52,35a4.3,4.3,0,0,0-2.32-.69,4.51,4.51,0,0,0-2.75,1v10h-3.09V31.64H179l.32,1.12a5.32,5.32,0,0,1,3.48-1.39,8.24,8.24,0,0,1,1.39.12,4.8,4.8,0,0,1,1.34.42Z"/><path class="cls-1" d="M197.23,41.78v3a9.32,9.32,0,0,1-3.89.82,7.28,7.28,0,0,1-4.94-1.77,7,7,0,0,1-2.11-5.34,7.45,7.45,0,0,1,1.93-5.29,5.84,5.84,0,0,1,4.23-1.82,6.69,6.69,0,0,1,2,.33,4.85,4.85,0,0,1,2.34,1.72,6.93,6.93,0,0,1,1.12,4.15v2.06h-8.3A3.6,3.6,0,0,0,191.18,42a4.59,4.59,0,0,0,2.49.67,7.57,7.57,0,0,0,3.45-.89Zm-2.12-4.59a3.29,3.29,0,0,0-.89-2.19,2.4,2.4,0,0,0-1.68-.66,2.71,2.71,0,0,0-1.8.67,3.77,3.77,0,0,0-1.15,2.18Z"/><path class="cls-1" d="M200.37,31.64H203l.3,1.06a8.07,8.07,0,0,1,4.37-1.33,5.27,5.27,0,0,1,3.47,1.15,4.67,4.67,0,0,1,1.5,3.72v9.08h-3.09V37.15A2.62,2.62,0,0,0,208.6,35a3.43,3.43,0,0,0-2.16-.63,5.81,5.81,0,0,0-3,.84V45.32h-3.09Z"/><path class="cls-2" d="M51.54,46.45c-2-1.55-3,0-4.27-.09-1.09-.09-2.1-1.84-2.94-1.42-1.6.82.64,3.7,1.61,4.28a23.84,23.84,0,0,0,2.22,1.12,3.28,3.28,0,0,1,2,2.94A5.2,5.2,0,0,1,50,54.69c-.58,2.5-4.95,4.76-7.45,3.05A5.69,5.69,0,0,1,40,54c-.67-3.27-3-5.68-3.79-8.88-.46-1.95-.81-4-1.31-6s-1.05-4-1.48-5.87a50.52,50.52,0,0,0-1.79-5.82c-2.39-6.25-3.47-5.8-3.47-5.8s.87,1.73,4,17.06c.13.63,1.28,7.38,2.13,9.6.3.79.82,2.5,1.17,3.25,1,2.19,3.67,5.52,3.84,8.52.11,1.74.3,3.17.34,4.48a14.49,14.49,0,0,0,.45,2.65C40.73,69.08,46,75,51.55,75V70.51c-5.53,0-10.75-3.11-10.88-3.43a12.27,12.27,0,0,1,.66-3.21,5.24,5.24,0,0,1,4.5-3.66c2.69-.2,4.3.58,5.72.58Z"/><path class="cls-2" d="M27.49,30.21c-.2,3.35-5.39,7.94-7,10.87a21.54,21.54,0,0,0-2,5.37,14.26,14.26,0,0,0,1.16,8.82c1.71,4.11-.24,5.62,1.11,4.79,1.66-1.35,1.4-4.51,1.28-6.48a28.91,28.91,0,0,1,0-5.33c.46-3.56,2.62-7.39,4.46-10.07a9.18,9.18,0,0,0,1-8"/><path class="cls-2" d="M28.54,39.73s.55,2.65-1.79,9.48C20.62,67.06,32.32,68.75,35.65,73c0,0,1.29-1.82-4-7.64C29.7,63.19,28,58.5,29.47,51.81c2.2-9.69-.93-12.08-.93-12.08"/><path class="cls-2" d="M17,28a8.6,8.6,0,0,1-.3-2.84c.28-4.19,4.09-5.89,5-6.51,0,0,1.71-1.18,1.94-2.36,0,0,1.75,4.41-2.27,6.94A11.51,11.51,0,0,0,17,28"/><path class="cls-2" d="M26.56,24c.22.43,1.8,2.74-4.67,8.07s-4.44,9.14-4.44,9.14-6.89-3.83,1.05-10.45,6.31-8,6.31-8A2,2,0,0,1,26.56,24"/><path class="cls-2" d="M35,26c1.11.15,1.82,3.63,4.41,4.39,1.9.56,3.92.25,4.37,1.4-.88.46-.19,2,.69,1.74C45.15,31.51,45.52,23.64,35,26Zm3.48,1.57c.09-.25.22,0,.51-.23s.61-.75,1.1-.91a2.08,2.08,0,0,1,1.16.07c.22.06.09.62-.08.77-.35.25-1.38-.17-1.38.6,0,1.27,1.72,0,2.59,0C42.77,31,37.67,30.12,38.44,27.58Z"/><path class="cls-3" d="M85.17,53.41a.78.78,0,0,1,.23-.55.82.82,0,0,1,1.12,0,.74.74,0,0,1,.23.55.76.76,0,0,1-.24.56.74.74,0,0,1-.55.23A.77.77,0,0,1,85.4,54,.75.75,0,0,1,85.17,53.41Zm.22,2.08h1.14V63.1H85.39Z"/><path class="cls-3" d="M90.13,62.19a4.24,4.24,0,0,0,1-.13,1.63,1.63,0,0,0,.73-.4.93.93,0,0,0-.24-1.57,6.82,6.82,0,0,0-.92-.42c-.46-.19-.8-.34-1-.46a2,2,0,0,1-1.18-1.83,1.85,1.85,0,0,1,.37-1.18,2.67,2.67,0,0,1,2.23-.85,5.41,5.41,0,0,1,1.54.22v1l0,0A6.42,6.42,0,0,0,91,56.4c-.85,0-1.28.3-1.28.88a1.05,1.05,0,0,0,.59.92,5.24,5.24,0,0,0,1,.48c.52.21.92.38,1.21.53a1.54,1.54,0,0,1,.65.61,2.26,2.26,0,0,1-.72,2.78,3.48,3.48,0,0,1-2,.64,4.88,4.88,0,0,1-1.9-.34v-1l0,0A4.61,4.61,0,0,0,90.13,62.19Z"/><path class="cls-3" d="M100.53,62.19a4.33,4.33,0,0,0,1-.13,1.63,1.63,0,0,0,.73-.4.94.94,0,0,0-.25-1.57,5.77,5.77,0,0,0-.92-.42c-.45-.19-.79-.34-1-.46a2,2,0,0,1-1.18-1.83,1.85,1.85,0,0,1,.37-1.18,2.65,2.65,0,0,1,2.23-.85,5.41,5.41,0,0,1,1.54.22v1l0,0a6.35,6.35,0,0,0-1.67-.24c-.86,0-1.28.3-1.28.88a1.05,1.05,0,0,0,.59.92,5,5,0,0,0,1,.48c.52.21.92.38,1.21.53a1.54,1.54,0,0,1,.65.61,2.32,2.32,0,0,1,.21,1,2,2,0,0,1-.94,1.78,3.45,3.45,0,0,1-2,.64,4.85,4.85,0,0,1-1.9-.34v-1l0,0A4.71,4.71,0,0,0,100.53,62.19Z"/><path class="cls-3" d="M108.23,62.19a4.15,4.15,0,0,0,2-.73v-6h1.14V63.1h-.72l-.23-.73a4.56,4.56,0,0,1-2.42.87,2.6,2.6,0,0,1-1.83-.69,2.87,2.87,0,0,1-.74-2.19V55.49h1.13v4.8C106.57,61.55,107.13,62.19,108.23,62.19Z"/><path class="cls-3" d="M113.72,55.49h.76l.21.66a3.18,3.18,0,0,1,2.12-.8,2.94,2.94,0,0,1,2.37,1.1,4.3,4.3,0,0,1,.9,2.8,4.22,4.22,0,0,1-1,2.84,3.54,3.54,0,0,1-2.85,1.15,6.74,6.74,0,0,1-1.4-.15v3.36h-1.14Zm2.62,6.7a2.41,2.41,0,0,0,1.89-.82,3,3,0,0,0,.73-2.13,3.46,3.46,0,0,0-.58-2.07,2.06,2.06,0,0,0-1.76-.77,2,2,0,0,0-1.76.82V61.9A3.9,3.9,0,0,0,116.34,62.19Z"/><path class="cls-3" d="M127.15,59.58h-4.74a2.94,2.94,0,0,0,.76,1.91,2.26,2.26,0,0,0,1.7.7,4.62,4.62,0,0,0,2.1-.54h0V62.7a5,5,0,0,1-2.18.54,3.27,3.27,0,0,1-2.6-1.08,4.3,4.3,0,0,1-.93-2.88,4.66,4.66,0,0,1,.8-2.86,2.86,2.86,0,0,1,2.44-1.07,2.28,2.28,0,0,1,2.26,1.32,4.36,4.36,0,0,1,.36,1.89Zm-2.64-3.18a1.75,1.75,0,0,0-1.38.6,2.93,2.93,0,0,0-.69,1.53H126c0-1-.28-1.7-.78-2A1.61,1.61,0,0,0,124.51,56.4Z"/><path class="cls-3" d="M128.85,55.49h.76l.27.88a2.47,2.47,0,0,1,1.87-1,3.11,3.11,0,0,1,1.25.26l-.39,1a2.31,2.31,0,0,0-1.05-.24,1.89,1.89,0,0,0-1.57,1V63.1h-1.14Z"/><path class="cls-3" d="M136.66,63.24a3.35,3.35,0,0,1-2.45-.93,4.09,4.09,0,0,1-1.09-3.06,3.89,3.89,0,0,1,1-2.94,3.52,3.52,0,0,1,2.54-1,4.91,4.91,0,0,1,2.18.54v1l-.06,0a4.61,4.61,0,0,0-2.08-.52,2.43,2.43,0,0,0-1.75.68,2.83,2.83,0,0,0-.7,2.13,3.12,3.12,0,0,0,.71,2.22,2.36,2.36,0,0,0,1.76.76,4.46,4.46,0,0,0,2.06-.52l.06,0v1A4.91,4.91,0,0,1,136.66,63.24Z"/><path class="cls-3" d="M146.78,59.29a4.14,4.14,0,0,1-1,2.81,3.19,3.19,0,0,1-2.52,1.14,3.09,3.09,0,0,1-2.49-1.13,4.5,4.5,0,0,1,0-5.61,3.17,3.17,0,0,1,2.53-1.15,3.1,3.1,0,0,1,2.49,1.14A4.19,4.19,0,0,1,146.78,59.29Zm-5.84,0a3.3,3.3,0,0,0,.64,2.09,2.08,2.08,0,0,0,1.75.83A2,2,0,0,0,145,61.4a3.37,3.37,0,0,0,.61-2,3.51,3.51,0,0,0-.61-2.11,2,2,0,0,0-1.73-.84,2.06,2.06,0,0,0-1.74.81A3.37,3.37,0,0,0,140.94,59.27Z"/><path class="cls-3" d="M157.2,58.3c0-1.26-.55-1.9-1.65-1.9a3.71,3.71,0,0,0-1.72.57,4.08,4.08,0,0,1,.18,1.26V63.1h-1.13V58.3c0-1.27-.47-1.9-1.4-1.9a3,3,0,0,0-1.81.72v6h-1.13V55.49h.72l.25.71a4.34,4.34,0,0,1,2.28-.85,2,2,0,0,1,1.63.82,4.5,4.5,0,0,1,2.24-.82,2.72,2.72,0,0,1,1.93.69,2.85,2.85,0,0,1,.75,2.19V63.1H157.2Z"/><path class="cls-3" d="M160.61,55.49h.76l.21.66a3.18,3.18,0,0,1,2.12-.8,2.94,2.94,0,0,1,2.37,1.1,4.3,4.3,0,0,1,.91,2.8,4.23,4.23,0,0,1-1,2.84,3.54,3.54,0,0,1-2.85,1.15,6.74,6.74,0,0,1-1.4-.15v3.36h-1.14Zm2.62,6.7a2.41,2.41,0,0,0,1.89-.82,3,3,0,0,0,.73-2.13,3.46,3.46,0,0,0-.58-2.07,2.06,2.06,0,0,0-1.76-.77,2,2,0,0,0-1.76.82V61.9A3.9,3.9,0,0,0,163.23,62.19Z"/><path class="cls-3" d="M171.46,62.19a4.15,4.15,0,0,0,2-.73v-6h1.14V63.1h-.72l-.23-.73a4.56,4.56,0,0,1-2.41.87,2.61,2.61,0,0,1-1.84-.69,2.87,2.87,0,0,1-.74-2.19V55.49h1.13v4.8C169.8,61.55,170.36,62.19,171.46,62.19Z"/><path class="cls-3" d="M176.07,55.49h.84V54.13l1.07-.2h.07v1.56h2.11v1.06h-2.11v3.73a2.26,2.26,0,0,0,.37,1.43,1.22,1.22,0,0,0,1,.48,3,3,0,0,0,1.42-.45l.3,1a4.67,4.67,0,0,1-2,.46,2.1,2.1,0,0,1-1.61-.71,3.25,3.25,0,0,1-.66-2.25V56.55h-.84Z"/><path class="cls-3" d="M182.4,53.41a.78.78,0,0,1,.23-.55.82.82,0,0,1,1.12,0,.73.73,0,0,1,.22.55.79.79,0,0,1-.78.79.77.77,0,0,1-.56-.24A.75.75,0,0,1,182.4,53.41Zm.22,2.08h1.13V63.1h-1.13Z"/><path class="cls-3" d="M189.46,56.4a4.33,4.33,0,0,0-2,.73v6h-1.13V55.49h.76l.21.71a4.51,4.51,0,0,1,2.4-.85,2.58,2.58,0,0,1,1.82.69,2.85,2.85,0,0,1,.75,2.19V63.1h-1.14V58.3C191.12,57,190.57,56.4,189.46,56.4Z"/><path class="cls-3" d="M197.52,61.51a3.65,3.65,0,0,1,2.32.62,1.9,1.9,0,0,1,.78,1.54,2.48,2.48,0,0,1-1.23,2.06,4.44,4.44,0,0,1-2.61.87,3.14,3.14,0,0,1-2.15-.69,2.22,2.22,0,0,1-.78-1.74,2.19,2.19,0,0,1,.24-1,3,3,0,0,1,.69-.92,1.13,1.13,0,0,1-.46-.56,2,2,0,0,1-.16-.71,2.28,2.28,0,0,1,.54-1.38,2,2,0,0,1-.46-.8,3.05,3.05,0,0,1-.17-1,2.32,2.32,0,0,1,.8-1.81,2.87,2.87,0,0,1,2-.72,3,3,0,0,1,1.47.36,4.28,4.28,0,0,1,1-.57,2.6,2.6,0,0,1,1-.21l.34,1.06a3.81,3.81,0,0,0-1.42.49,2.2,2.2,0,0,1,.46,1.37,2.53,2.53,0,0,1-.82,1.89,2.87,2.87,0,0,1-2.08.79,3,3,0,0,1-1.4-.34,1.08,1.08,0,0,0-.26.64.58.58,0,0,0,.25.49,1.18,1.18,0,0,0,.69.19ZM195,64.08c0,1,.62,1.46,1.85,1.46a3.16,3.16,0,0,0,1.88-.55,1.56,1.56,0,0,0,.78-1.26q0-.72-.87-1a8.43,8.43,0,0,0-2.1-.18h-.86A2.25,2.25,0,0,0,195,64.08Zm1.88-7.68a1.71,1.71,0,0,0-1.26.47,1.48,1.48,0,0,0-.47,1.07A1.5,1.5,0,0,0,195.6,59a1.71,1.71,0,0,0,1.27.47,1.63,1.63,0,0,0,1.25-.46,1.4,1.4,0,0,0,.46-1.05,1.56,1.56,0,0,0-.46-1.09A1.7,1.7,0,0,0,196.86,56.4Z"/></g></g></svg>
